PathFileType	4	(X/Y/Z)	/Users/itak/Documents/Research/Walk-IL/dataset/trc/00204_00008.trc
DataRate	CameraRate	NumFrames	NumMarkers	Units	OrigDataRate	OrigDataStartFrame	OrigNumFrames
100.000000	100.000000	4	53	mm	100.000000	436	499
Frame#	Time	RPSI			LPSI			L3			STRN			T10			C7			CLAV			RBAK			LBAK			LSHO			LUPA			LAEL			LAOL			LWTS			LWPS			LFRA			LIFD			LHPS			LHTS			RSHO			RUPA			RAEL			RAOL			RWTS			RWPS			RFRA			RIFD			RHTS			RHPS			RBHD			LFHD			RFHD			LBHD			LHIP			RHIP			RASI			LASI			LKNE			LTHI			LANK			LTIP			LTOE			LMT1			LMT5			LHEE			RKNE			RTHI			RANK			RTIP			RTOE			RMT1			RMT5			RHEE			
		X1	Y1	Z1	X2	Y2	Z2	X3	Y3	Z3	X4	Y4	Z4	X5	Y5	Z5	X6	Y6	Z6	X7	Y7	Z7	X8	Y8	Z8	X9	Y9	Z9	X10	Y10	Z10	X11	Y11	Z11	X12	Y12	Z12	X13	Y13	Z13	X14	Y14	Z14	X15	Y15	Z15	X16	Y16	Z16	X17	Y17	Z17	X18	Y18	Z18	X19	Y19	Z19	X20	Y20	Z20	X21	Y21	Z21	X22	Y22	Z22	X23	Y23	Z23	X24	Y24	Z24	X25	Y25	Z25	X26	Y26	Z26	X27	Y27	Z27	X28	Y28	Z28	X29	Y29	Z29	X30	Y30	Z30	X31	Y31	Z31	X32	Y32	Z32	X33	Y33	Z33	X34	Y34	Z34	X35	Y35	Z35	X36	Y36	Z36	X37	Y37	Z37	X38	Y38	Z38	X39	Y39	Z39	X40	Y40	Z40	X41	Y41	Z41	X42	Y42	Z42	X43	Y43	Z43	X44	Y44	Z44	X45	Y45	Z45	X46	Y46	Z46	X47	Y47	Z47	X48	Y48	Z48	X49	Y49	Z49	X50	Y50	Z50	X51	Y51	Z51	X52	Y52	Z52	X53	Y53	Z53	

437	4.36	430.6379089355469	1056.774658203125	754.6506958007812	554.9899291992188	1053.864990234375	764.579833984375	490.9343566894531	1091.39599609375	758.89404296875	484.7879028320312	1311.844848632812	1008.448852539062	506.7405090332031	1247.88134765625	713.4480590820312	521.3406982421875	1519.94873046875	772.544189453125	498.931640625	1424.659057617188	979.7669067382812	412.4078369140625	1344.233520507812	702.1094970703125	621.1331787109375	1492.7578125	775.06640625	691.3487548828125	1481.71533203125	859.7943115234375	765.880615234375	1348.094482421875	847.224853515625	782.47900390625	1133.84033203125	900.7319946289062	716.7391357421875	1106.484252929688	846.92919921875	713.6347045898438	965.3514404296875	1083.60546875	760.9573974609375	909.5419311523438	1025.18212890625	784.1242065429688	1032.86376953125	954.9639892578125	670.7431640625	810.8828125	1170.264526367188	748.2047729492188	856.8074951171875	1073.295654296875	726.4415893554688	899.2190551757812	1128.798950195312	334.8343200683594	1503.919189453125	822.418701171875	266.4847106933594	1439.435913085938	798.377197265625	200.4181365966797	1155.102294921875	786.0618286132812	297.4395446777344	1140.965209960938	794.1273803710938	184.2366180419922	936.0297241210938	936.4183349609375	145.7450866699219	918.4884643554688	857.0652465820312	173.9859924316406	1086.219604492188	811.32421875	195.0158081054688	747.3670654296875	959.2681884765625	165.3307647705078	844.4528198242188	965.515380859375	136.9810943603516	837.4581909179688	889.3733520507812	439.1423645019531	1702.437255859375	884.2904663085938	571.7620849609375	1678.311889648438	1054.409301757812	443.8636169433594	1680.2763671875	1057.712768554688	576.1040649414062	1710.346557617188	877.0974731445312	664.64404296875	997.4901123046875	881.1932983398438	298.0108947753906	1023.654541015625	901.96923828125	343.6868896484375	1054.120971679688	986.7958374023438	602.1099853515625	1041.659301757812	1000.232360839844	605.2290649414062	503.0584716796875	895.1574096679688	639.7943725585938	644.8385620117188	902.4678344726562	588.7075805664062	40.06977462768555	821.6384887695312	609.5425415039062	280.0562438964844	860.7465209960938	537.3612670898438	44.26370620727539	1037.334228515625	497.3872680664062	50.82001876831055	983.4671630859375	616.3497314453125	32.73663711547852	933.612548828125	525.4363403320312	43.09039306640625	765.1005859375	296.8862915039062	521.5247192382812	904.6522216796875	274.3950805664062	794.623046875	950.8677978515625	285.8149719238281	39.1682014465332	809.0189208984375	307.7754211425781	403.1224670410156	911.5269165039062	299.1025695800781	45.23269271850586	1034.818603515625	348.5349731445312	45.40140533447266	984.2118530273438	237.8179168701172	37.74506759643555	917.4156494140625	356.8857421875	35.46053314208984	763.4335327148438	
438	4.37	430.4337463378906	1056.577026367188	756.4457397460938	554.8194580078125	1053.541259765625	766.5419921875	490.75048828125	1091.02001953125	760.77294921875	484.3885192871094	1311.52978515625	1010.143676757812	506.3390197753906	1247.396606445312	715.2437133789062	520.7018432617188	1519.592651367188	774.1085205078125	498.4825439453125	1424.339599609375	981.3832397460938	411.9705200195312	1343.654296875	703.7723388671875	620.4573974609375	1492.47412109375	776.5867309570312	690.8717651367188	1481.38232421875	861.1871948242188	765.1824340820312	1347.594848632812	847.7443237304688	780.83154296875	1132.646362304688	898.9888916015625	714.6319580078125	1106.34716796875	845.2404174804688	712.6748657226562	960.54931640625	1078.85693359375	759.5635986328125	905.9547119140625	1019.032287597656	782.533203125	1030.704956054688	951.3124389648438	669.9742431640625	804.6848754882812	1162.39404296875	746.9798583984375	852.1871948242188	1066.041259765625	725.535400390625	893.4111938476562	1122.562255859375	334.2339782714844	1503.350341796875	823.9505004882812	265.9140319824219	1438.855346679688	799.8709106445312	199.747314453125	1154.651611328125	787.3651123046875	296.7598266601562	1140.383666992188	795.63134765625	182.7158660888672	935.2002563476562	937.0570678710938	144.5507202148438	917.9820556640625	857.4110717773438	173.1736450195312	1085.821899414062	812.4314575195312	192.8968505859375	746.4390869140625	959.2725830078125	163.3579559326172	843.5350952148438	965.6797485351562	135.3839569091797	836.8809204101562	889.3351440429688	438.1103820800781	1701.979858398438	885.7232055664062	570.5169067382812	1678.104858398438	1056.012939453125	442.6222534179688	1679.767700195312	1059.136108398438	575.017333984375	1710.216186523438	878.6929931640625	664.3642578125	997.063720703125	883.2954711914062	297.9579772949219	1023.218872070312	903.5953369140625	343.3264465332031	1053.7587890625	988.637451171875	601.767822265625	1041.217651367188	1002.360778808594	605.022216796875	502.8695373535156	894.7933959960938	639.5969848632812	644.5480346679688	902.9799194335938	588.6625366210938	40.08992767333984	821.5982055664062	609.57763671875	280.2083129882812	860.2600708007812	537.3299560546875	44.27524566650391	1037.29833984375	497.3560485839844	50.75161361694336	983.4171142578125	616.341064453125	32.75954437255859	933.5993041992188	525.3084106445312	42.99916076660156	765.0416259765625	296.58154296875	521.3761596679688	904.0145874023438	274.2536010742188	794.6043701171875	952.1783447265625	285.8355407714844	39.13583755493164	809.0158081054688	307.612060546875	403.2561645507812	910.8255615234375	299.0683288574219	45.20394897460938	1034.826538085938	348.51416015625	45.40837097167969	984.2294921875	237.8063201904297	37.74020385742188	917.3921508789062	356.9053039550781	35.44626617431641	763.4345092773438	
439	4.38	430.2487487792969	1056.376953125	758.1787719726562	554.6582641601562	1053.225463867188	768.4503784179688	490.5836791992188	1090.656494140625	762.5944213867188	483.925048828125	1311.194458007812	1011.803588867188	505.998046875	1246.939819335938	717.0042724609375	520.1238403320312	1519.247436523438	775.6751708984375	498.0008544921875	1424.010009765625	983.0022583007812	411.6157531738281	1343.099975585938	705.355712890625	619.8425903320312	1492.184204101562	778.1705322265625	690.3999633789062	1481.03515625	862.6757202148438	764.4909057617188	1347.086303710938	848.3934936523438	779.1549072265625	1131.464965820312	897.3455810546875	712.4921264648438	1106.260498046875	843.660888671875	711.8153076171875	955.453857421875	1073.820190429688	758.2913818359375	902.2725219726562	1012.5029296875	780.974609375	1028.53955078125	947.5704956054688	669.415771484375	798.0386352539062	1153.86328125	745.9046020507812	847.3858032226562	1058.265625	724.7577514648438	887.2540283203125	1115.868408203125	333.6636352539062	1502.793090820312	825.3965454101562	265.3844909667969	1438.275268554688	801.2274169921875	199.1447448730469	1154.183349609375	788.4943237304688	296.1378479003906	1139.802368164062	796.9947509765625	181.2857971191406	934.46728515625	937.6875610351562	143.5002136230469	917.4588012695312	857.743408203125	172.4425048828125	1085.397338867188	813.3876953125	190.9624633789062	745.6494750976562	959.4931030273438	161.4921417236328	842.751953125	965.8975830078125	133.9657287597656	836.3280029296875	889.3841552734375	437.1077575683594	1701.520629882812	887.1117553710938	569.21875	1677.893188476562	1057.654907226562	441.3061828613281	1679.259399414062	1060.514404296875	573.9568481445312	1710.078125	880.3228149414062	664.0507202148438	996.6355590820312	885.3893432617188	297.7989501953125	1022.750549316406	905.0880737304688	342.8580932617188	1053.364624023438	990.346923828125	601.3069458007812	1040.713134765625	1004.442993164062	604.8035888671875	502.6676635742188	894.5999755859375	639.3646850585938	644.2534790039062	903.6181640625	588.6244506835938	40.10100936889648	821.560546875	609.5925903320312	280.3116149902344	859.906494140625	537.2929077148438	44.28940582275391	1037.257934570312	497.3147583007812	50.67620086669922	983.359130859375	616.3299560546875	32.78430938720703	933.5873413085938	525.1926879882812	42.89712524414062	764.9794311523438	296.2872924804688	521.216796875	903.5511474609375	273.9963989257812	794.4677124023438	953.274658203125	285.8702087402344	39.11783218383789	809.0142822265625	307.4597778320312	403.3309936523438	910.2908935546875	299.0450134277344	45.16898727416992	1034.846557617188	348.5025939941406	45.3959846496582	984.2479248046875	237.8038177490234	37.74050903320312	917.3690185546875	356.9382934570312	35.43021392822266	763.4335327148438	
440	4.39	430.0865478515625	1056.181518554688	759.8468627929688	554.5111694335938	1052.924560546875	770.299560546875	490.4330444335938	1090.314453125	764.3523559570312	483.3915710449219	1310.845458984375	1013.421936035156	505.7261352539062	1246.520263671875	718.7232666015625	519.6040649414062	1518.914916992188	777.2457275390625	497.483642578125	1423.680053710938	984.6229248046875	411.341064453125	1342.583251953125	706.859130859375	619.2891845703125	1491.90087890625	779.8162841796875	689.9347534179688	1480.676879882812	864.2608032226562	763.7988891601562	1346.568603515625	849.177734375	777.45556640625	1130.307006835938	895.8240356445312	710.3396606445312	1106.223754882812	842.2051391601562	711.0552368164062	950.107177734375	1068.499755859375	757.1527709960938	898.5450439453125	1005.618530273438	779.4544067382812	1026.395751953125	943.7655639648438	669.094482421875	790.989501953125	1144.698120117188	744.987060546875	842.4652709960938	1049.987548828125	724.1088256835938	880.8028564453125	1108.720947265625	333.1227416992188	1502.258911132812	826.7559814453125	264.8917846679688	1437.708740234375	802.4503784179688	198.6065979003906	1153.708251953125	789.4624633789062	295.5735168457031	1139.232299804688	798.223876953125	179.9588317871094	933.8304443359375	938.3092041015625	142.5951538085938	916.9299926757812	858.072509765625	171.7911529541016	1084.961059570312	814.2030639648438	189.2284698486328	744.989990234375	959.9069213867188	159.7561492919922	842.09228515625	966.1629028320312	132.7311553955078	835.81103515625	889.5258178710938	436.1345825195312	1701.067749023438	888.462158203125	567.8717041015625	1677.68115234375	1059.33837890625	439.924560546875	1678.756103515625	1061.855224609375	572.9337158203125	1709.939331054688	881.9979858398438	663.6900634765625	996.2131958007812	887.4622192382812	297.5399780273438	1022.266357421875	906.4453125	342.2881469726562	1052.954956054688	991.9220581054688	600.7325439453125	1040.155151367188	1006.47265625	604.5662841796875	502.4559936523438	894.608642578125	639.0945434570312	643.9573364257812	904.39794921875	588.591796875	40.1085090637207	821.527587890625	609.5726928710938	280.3566284179688	859.71435546875	537.2474975585938	44.3007926940918	1037.220092773438	497.2619018554688	50.59189605712891	983.2990112304688	616.3148193359375	32.81356048583984	933.5775756835938	525.0926513671875	42.79096984863281	764.91845703125	296.0043640136719	521.0597534179688	903.2467041015625	273.6394653320312	794.2426147460938	954.1575317382812	285.9119873046875	39.10958862304688	809.0130615234375	307.3032836914062	403.3578796386719	909.9157104492188	299.0301208496094	45.13148880004883	1034.876098632812	348.4938049316406	45.36468505859375	984.2626342773438	237.8060913085938	37.74394226074219	917.3462524414062	356.9795837402344	35.41448974609375	763.4308471679688	
